<svg id="Layer_2" data-name="Layer 2" xmlns="http://www.w3.org/2000/svg" viewBox="0 0 400 300" data-imageid="lawyer-isometric" imageName="Lawyer" class="illustrations_image" style="width: 145px;"><title>PP</title><path d="M196.24,288.6,23.74,186.65c-5.49-3.08-10.2-8.15-4.85-11.46L192,75.41c2.6-1.61,6.54-2.66,9.18-1.13L382.28,179.37c5.49,3.19,6.48,12.1,1,15.29L219,288.44A22.94,22.94,0,0,1,196.24,288.6Z" fill="#007f68"/><path d="M305.15,163.36s-1.78,18.8,22.31,18.8,22.31-18.8,22.31-18.8" fill="#68e1fd" class="target-color"/><path d="M305.15,163.36s-1.78,18.8,22.31,18.8,22.31-18.8,22.31-18.8" fill="#1f404a" opacity="0.53"/><ellipse cx="327.46" cy="163.36" rx="22.31" ry="12.73" fill="#68e1fd" class="target-color"/><ellipse cx="327.46" cy="163.36" rx="22.31" ry="12.73" fill="#fff" opacity="0.33"/><path d="M347.87,163.42c0,7.06-9.29,10.65-20.79,10.65s-20.88-3.59-20.88-10.65,9.33-12.79,20.84-12.79S347.87,156.36,347.87,163.42Z" fill="#68e1fd" class="target-color"/><path d="M347.87,163.42c0,7.06-9.29,10.65-20.79,10.65s-20.88-3.59-20.88-10.65,9.33-12.79,20.84-12.79S347.87,156.36,347.87,163.42Z" fill="#1f404a" opacity="0.53"/><ellipse cx="327.08" cy="165.46" rx="20.1" ry="8.62" fill="#68e1fd" class="target-color"/><path d="M275.25,70.57s42.51,23.27,46.26,23.55,5.78-2,7.95-1,.72,6.79,2.6,5.93,4-6.94-1.3-9.83-8.53,0-8.53,0L278.6,62.62Z" fill="#68e1fd" class="target-color"/><path d="M312.68,172.75l15.51-80.51c.18-.94-1.21-1.35-1.45-.4l-15.51,62.42a.75.75,0,0,0,1.45.4l15.51-62.42-1.45-.4-15.51,80.51c-.18.94,1.26,1.35,1.45.4Z" fill="#2e3192"/><path d="M342.1,172.35c-1.17-4.35-1.65-9-2.43-13.42q-2.4-13.79-4.76-27.58-3.38-19.75-6.73-39.51l-1.45.4,13.92,61.82c.21.94,1.66.54,1.45-.4L328.18,91.84c-.21-1-1.61-.54-1.45.4q3.35,19.76,6.73,39.51,2.36,13.79,4.76,27.58c.77,4.43,1.26,9.06,2.43,13.42a.75.75,0,0,0,1.45-.4Z" fill="#2e3192"/><path d="M263.88,54.79,212.62,25s-2.15-8.23-9.62-4.3c0,0-2.15,2.53,0,3s3.29-1.65,4.3-.63a6.78,6.78,0,0,1,2.4,6.33L261.6,61.25" fill="#68e1fd" class="target-color"/><path d="M289.53,164.09c-4.68-4.24-12.67-7-21.74-7s-17.06,2.79-21.74,7h-4.37v8.73c0,8.7,11.69,15.76,26.1,15.76,13.72,0,25-6.39,26-14.51h.09v-10Z" fill="#68e1fd" class="target-color"/><path d="M289.53,164.09c-4.68-4.24-12.67-7-21.74-7s-17.06,2.79-21.74,7h-4.37v8.73c0,8.7,11.69,15.76,26.1,15.76,13.72,0,25-6.39,26-14.51h.09v-10Z" fill="#1f404a" opacity="0.53"/><ellipse cx="267.8" cy="164.09" rx="26.1" ry="14.56" fill="#68e1fd" class="target-color"/><ellipse cx="267.8" cy="164.09" rx="26.1" ry="14.56" fill="#fff" opacity="0.33"/><rect x="263.88" y="59.26" width="7.83" height="104.8" rx="3.45" ry="3.45" fill="#68e1fd" class="target-color"/><ellipse cx="268.81" cy="62.09" rx="10.43" ry="11.14" transform="translate(-3.52 106.29) rotate(-22.22)" fill="#68e1fd" class="target-color"/><ellipse cx="268.81" cy="62.09" rx="10.43" ry="11.14" transform="translate(-3.52 106.29) rotate(-22.22)" fill="#1f404a" opacity="0.53"/><ellipse cx="265.17" cy="64.42" rx="10.43" ry="11.14" transform="translate(-4.67 105.08) rotate(-22.22)" fill="#68e1fd" class="target-color"/><path d="M183.75,94.05s-1.78,18.8,22.31,18.8,22.31-18.8,22.31-18.8" fill="#68e1fd" class="target-color"/><path d="M183.75,94.05s-1.78,18.8,22.31,18.8,22.31-18.8,22.31-18.8" fill="#1f404a" opacity="0.53"/><ellipse cx="206.06" cy="94.05" rx="22.31" ry="12.73" fill="#68e1fd" class="target-color"/><ellipse cx="206.06" cy="94.05" rx="22.31" ry="12.73" fill="#fff" opacity="0.33"/><path d="M226.47,94.11c0,7.06-9.29,10.65-20.79,10.65s-20.88-3.59-20.88-10.65,9.33-12.79,20.84-12.79S226.47,87.05,226.47,94.11Z" fill="#68e1fd" class="target-color"/><path d="M226.47,94.11c0,7.06-9.29,10.65-20.79,10.65s-20.88-3.59-20.88-10.65,9.33-12.79,20.84-12.79S226.47,87.05,226.47,94.11Z" fill="#1f404a" opacity="0.53"/><ellipse cx="205.67" cy="96.15" rx="20.1" ry="8.62" fill="#68e1fd" class="target-color"/><path d="M191.7,103.07l15.51-80.51c.18-.94-1.21-1.35-1.45-.4L190.26,84.58a.75.75,0,0,0,1.45.4l15.51-62.42-1.45-.4-15.51,80.51c-.18.94,1.26,1.35,1.45.4Z" fill="#2e3192"/><path d="M221.12,102.67c-1.17-4.35-1.65-9-2.43-13.42q-2.4-13.79-4.76-27.58-3.38-19.75-6.73-39.51l-1.45.4,13.92,61.82c.21.94,1.66.54,1.45-.4L207.21,22.16c-.21-1-1.61-.54-1.45.4q3.35,19.76,6.73,39.51,2.36,13.79,4.76,27.58c.77,4.43,1.26,9.06,2.43,13.42a.75.75,0,0,0,1.45-.4Z" fill="#2e3192"/><ellipse cx="264.84" cy="64.19" rx="5.12" ry="5.4" fill="#fff"/><path d="M143.47,209.32s1.65,7.63,4,10.77,6.75,8.83,6.07,11.22-4,6.29-12.35-3.29-6.14-7-6.14-7l-.27-15.86" fill="#33302f"/><path d="M161.18,203.16s1.21,6.23,3.64,9.08,11.51,4.91,8.09,9.3-12.86-2.91-17.33-4.08a23.44,23.44,0,0,1-7.4-3.36l1.79-9.68" fill="#33302f"/><path d="M166.93,106s-1.57,43.43-2.18,51-1.29,46.95-1.29,46.95-4.36,3.24-13.73,1.12c0,0-2-34.26-1.74-40.61s-6.23-53.29-5.33-53.18S166.93,106,166.93,106Z" fill="#14333e"/><path d="M148,213.39a17.55,17.55,0,0,1-14.24.53c-.36-5.12-1.8-28.6.07-49.74,0,0-2.42-51.68,1.51-56.21s28.11,0,28.11,0S154,147.86,153.13,152.7s-4.84,19-5.14,27.2C147.75,186.26,147.88,205.32,148,213.39Z" fill="#20404d"/><path d="M153.13,129.21a35.35,35.35,0,0,1-16.91-.27c-2.21-6.7-.07-19-.07-19s-.24-5.37-.34-9.51a.8.8,0,0,0,.13-.86c-.06-.15-.11-.31-.16-.46,0-.56,0-1.07,0-1.52a9.6,9.6,0,0,0-1.43-4.29c-.86-5.43-.7-11.13-1.46-16.52-.56-3.95-1.92-6.79-2.23-10,.71-2.26,1.82-4.36,2.7-6.55,3.84-2.43,10.38-6.1,13.09-6.69,4.28-.94,3.75-.18,8.1-.39,9.11-.45,12.89,5.08,13.85,8.94.75,3,.59,42.63.49,60.41C164.3,125.95,158.44,128,153.13,129.21Z" fill="#1f404a"/><path d="M120.82,152l-.57,15.72a4.13,4.13,0,0,0,2.06,3.72l28,16.22,1-27.15" fill="#853f28"/><path d="M155.13,158.14l1.74,25.35a1.91,1.91,0,0,1-1.17,1.89l-5.42,2.27V158.14Z" fill="#561d02"/><path d="M155.13,158.14s-3.27-.39-3.8,2.36c-.32,1.66-.73,6.4-1,9.92a2.52,2.52,0,0,1-3.82,2l-25.17-15.3a3.55,3.55,0,0,1-1.71-3c0-3.86,0-12.11.68-13.21.92-1.44,5.5-1,6.55-.65S155.13,158.14,155.13,158.14Z" fill="#a05329"/><path d="M143.33,167v4.67a1.7,1.7,0,0,1-3.4,0V167A1.7,1.7,0,0,1,143.33,167Z" fill="#ffc64a"/><path d="M124.73,158.22a1.74,1.74,0,0,1,1.7-1.7,1.71,1.71,0,0,1,1.7,1.7,13.34,13.34,0,0,0,.15,3.57,1.74,1.74,0,0,1-1.19,2.09,1.71,1.71,0,0,1-2.09-1.19A16.69,16.69,0,0,1,124.73,158.22Z" fill="#ffc64a"/><path d="M139.59,126.45c-.26,1,.28,5.57.69,6.93s1.65,5.43,1.3,6.79-1.46-3.12-2.06-2.44a8.93,8.93,0,0,0-1.28,4.21c0,1.22,4.19,4.21,1.35,5s-5.68,0-6.91-1.9-.14-6.88,0-8.2-.58-13.13-.58-13.13Z" fill="#ffb92c"/><path d="M136.72,59.07c-1.11-.24-5.64-.92-7.75,13.51s1.54,46.94,1.54,48.1.77,12.51.77,12.51,5.64,1.92,9.94,0c0,0-.42-18.56,0-26.15C141.46,102.7,147,61.29,136.72,59.07Z" fill="#14333e"/><path d="M141.95,149.35s-1.14-6-3.71-7.42c0,0,0-3.84,1.28-4.21s5.89,6.35,5.46,13.57" fill="#561d02"/><path d="M156.8,58.32l2.87,39.21-10.5-39.79S154.13,59.53,156.8,58.32Z" fill="#fff"/><path d="M146.17,47.62l10.67,2.44V58.3a7.78,7.78,0,0,1-7.66-.56c-.49-1.21-1-2.45-1.45-3.7a.69.69,0,0,0-.08-.54c-.06-.09-.72.06-1,.08A50.31,50.31,0,0,1,146.17,47.62Z" fill="#ffb92c"/><path d="M146.12,45.91v-.07L156.84,53v2.79s-7.08-1.41-10.24-2.19A66.74,66.74,0,0,1,146.12,45.91Z" fill="#dd920e"/><path d="M147.67,38.41l-1.17.08a.7.7,0,0,0,.1,1.4l1.17-.08A.7.7,0,0,0,147.67,38.41Z" fill="#1c5028"/><path d="M162.44,34.35s-.09,17.34-4.4,18.47-9.13-3.21-10.8-5.3-5.77-10.3-4.35-12.4S159.79,31.36,162.44,34.35Z" fill="#ffb92c"/><path d="M142,33.78c1.51-6.87,9.49-6.79,14.88-6.3,3.07.28,6.23,1,8,3.89v0a4.48,4.48,0,0,1-.76,5.48c-1.77,1.67-4.42,2.1-7.17,1.65a16,16,0,0,0-4.52-.35,4.16,4.16,0,0,0-3.94,3.27c-1-.66-2.88-1.83-3.51-.49-.95,2,2.18,3.5,2.18,3.5s.74,4.12-.38,5S140.44,40.66,142,33.78Z" fill="#754c24"/><path d="M157,53H157a3.26,3.26,0,0,0,1.52-.38.62.62,0,0,0,.11-.1L160.41,54l1.18,5,3.83,2.91-5.7,36.25L156.8,58.32V53h0Z" fill="#305d68"/><polygon points="147.24 60.41 146.15 51.13 149.01 56.61 159.72 98.14 143.67 66.11 147.24 60.41" fill="#305d68"/><path d="M149.32,60.41c-.24-.69-5.06-5.27-5.06-5.27l1.89-4" fill="#305d68"/><polygon points="147.73 54.04 154.21 58.02 156.84 54.04 156.99 60.86 150.19 61.19 147.73 54.04" fill="#fff"/><path d="M154.89,60.65l.6-4.31a22.1,22.1,0,0,0-3.59.42c-.37.24,1.85,4,1.85,4Z" fill="#c14721"/><polygon points="154.7 59.72 157.96 74.11 159.67 97.53 153.59 74.64 153.75 60.79 154.7 59.72" fill="#c14721"/></svg>